<svg xmlns="http://www.w3.org/2000/svg" id="Layer_1" data-name="Layer 1" version="1.1" viewBox="0 0 322 71.8"><defs><style>.cls-1,.cls-2{fill:#1c1d1d;stroke-width:0}.cls-2{fill:#da1f33}</style></defs><g id="Layer_2" data-name="Layer 2"><g id="Layer_1-2" data-name="Layer 1-2"><path d="M48.1 12.4S44.5.1 23.6.1 1.5 10.8 1.5 14.1c0 1.8 1.6 11.2 18.4 12.8 9.7 1 11.2 1.5 11.2 3 0 1.1-1.5 2.3-4.9 2.4-3 0-7.4-.5-8.6-3.7H0s.3 12.5 23.6 12.6c20.8 0 24.5-6.9 24.5-13.6 0 0 1.1-9.5-15.5-12.2-8.8-1.4-16.2-1.2-15.8-4.5s11.1-1.8 11.7 1.7h19.6ZM79.2 13h18.3S95.1.2 74 .2 50.8 13 50.8 21.5 57.4 41.3 74 41.3C95.2 41.3 97.6 28 97.6 28H79.1s.2 3.5-5.1 3.5-6.9-6.6-6.9-10.7c0-4.6 1.8-10.9 6.9-10.9s5.2 3.3 5.2 3.3ZM127.3 12.4h-11.2V.1h-15.6v41.1h15.6V22.7h11.2v18.5h15.6V.1h-15.6v12.3zM186 10.9V0h-38.5v41.2H186V30.5h-22.7v-4.8h18.6V15.6h-18.6v-4.7H186zM248.9 0h-15.8v41.2h33.4V30.4h-17.6V0zM319.3 4.7h.6s.1 0 .2-.2V4s0-.1-.1-.1h-1.1v1h.5Zm.2-1.3c.3 0 .6 0 .8.2.2.2.3.4.3.7 0 .2 0 .4-.2.6-.2.1-.4.2-.6.2l.9 1.3h-.5l-.8-1.3h-.5v1.3h-.5v-3h1.2Zm-2.1 2.4c.1.3.3.5.5.7.2.2.4.4.7.5.3.1.6.2.9.2.3 0 .6 0 .9-.2.3-.1.5-.3.7-.5.2-.2.4-.4.5-.7.1-.3.2-.6.2-.9 0-.3 0-.6-.2-.9-.1-.3-.3-.5-.5-.7-.2-.2-.4-.4-.7-.5-.3-.1-.6-.2-.9-.2-.6 0-1.1.2-1.5.6-.2.2-.4.4-.5.7-.2.6-.2 1.2 0 1.8Zm-.4-1.9c.1-.3.3-.6.6-.8.2-.2.5-.4.8-.5.3-.1.7-.2 1-.2.3 0 .7 0 1 .2.6.3 1.1.7 1.4 1.4.1.3.2.7.2 1 0 .7-.3 1.4-.8 1.9-.2.2-.5.4-.8.6-.3.1-.7.2-1 .2-.3 0-.7 0-1-.2-.3-.1-.6-.3-.8-.6-.2-.2-.4-.5-.6-.8-.1-.3-.2-.7-.2-1 0-.3 0-.7.2-1ZM228.7 10.9V0h-38.5v41.2h38.5V30.5H206v-4.8h18.6V15.6H206v-4.7h22.7zM316.8 12.3S313.2 0 292.3 0s-22.1 10.7-22.1 14c0 1.8 1.6 11.2 18.4 12.8 9.7 1 11.2 1.5 11.2 3 0 1.1-1.5 2.3-4.9 2.4-3 0-7.4-.5-8.6-3.7h-17.7s.3 12.5 23.6 12.6c20.8 0 24.5-6.9 24.5-13.6 0 0 1.1-9.5-15.5-12.3-8.8-1.5-16.2-1.2-15.8-4.6s11.1-1.8 11.7 1.7h19.6Z" class="cls-2"/><path d="M83.5 53.6h6.8v2.1H86v5.7h4v2.1h-4v6.1h4.3v2.1h-6.8v-18ZM92.8 53.6h4l2.3 13.8 2.3-13.8h3.9v18.1H103V55.5l-2.6 16.2h-2.5L95 55.5v16.2h-2.2V53.6ZM108.3 53.6h4.1c3.4 0 4.1.9 4.1 5.1s-.7 5.1-4.1 5.1h-1.6v7.8h-2.5v-18Zm2.5 8.1h1.3c1.7 0 1.9-.3 1.9-3s-.2-3-1.9-3h-1.3v6ZM119.2 53.6h2.5v16h4.2v2.1h-6.7V53.6ZM128 58.2c0-2.5.8-4.8 4.2-4.8s4.2 1.7 4.2 4.5V67c0 2.5-.8 4.8-4.2 4.8s-4.2-1.7-4.2-4.5v-9.1Zm2.5 9.3c0 1.6.7 2.4 1.7 2.4s1.8-.8 1.8-2.4V58c0-1.8-.6-2.6-1.8-2.6s-1.7.8-1.7 2.6v9.5ZM138.3 53.6h2.5l2.2 7.6 2.5-7.6h2.2l-3.5 10.6v7.4h-2.5v-7.4l-3.4-10.7ZM150.4 53.6h6.8v2.1h-4.3v5.7h4.1v2.1h-4.1v6.1h4.3v2.1h-6.8v-18ZM159.7 53.6h6.8v2.1h-4.3v5.7h4v2.1h-4v6.1h4.3v2.1h-6.8v-18ZM174.7 58.2c0-2.5.8-4.8 4.2-4.8s4.2 1.7 4.2 4.5V67c0 2.5-.8 4.8-4.2 4.8s-4.2-1.7-4.2-4.5v-9.1Zm2.5 9.3c0 1.6.7 2.4 1.7 2.4s1.8-.8 1.8-2.4V58c0-1.8-.6-2.6-1.8-2.6s-1.7.8-1.7 2.6v9.5ZM185.3 53.6h2.6l1.8 14.8 2-14.8h3.4l1.6 14.8 2.2-14.8h2.4l-3.2 18H195l-1.7-15.1-2.1 15.1h-3l-2.9-18ZM203.6 53.6h3.4l2.9 15v-15h2.4v18.1h-3.6l-2.9-15.4v15.4h-2.2V53.6ZM215.4 53.6h6.8v2.1h-4.3v5.7h4v2.1h-4v6.1h4.3v2.1h-6.8v-18ZM224.8 53.6h4c4 0 4.4 1.3 4.4 6.6v5.4c0 4.6-.8 6.1-4.8 6.1h-3.6V53.6Zm2.4 15.9h1.2c1.9 0 2.2-1 2.2-4.1v-6.2c0-2.7-.3-3.6-2.4-3.6h-1v13.8Z" class="cls-1"/></g></g></svg>