<?xml version="1.0" encoding="UTF-8"?>
<svg version="1.1" xmlns="http://www.w3.org/2000/svg" width="260" height="260">
<path d="M0 0 C0.84175781 -0.01417969 1.68351562 -0.02835938 2.55078125 -0.04296875 C4.6875 0.1875 4.6875 0.1875 6.6875 2.1875 C7.09375 4.5 7.09375 4.5 6.6875 7.1875 C4.78125 9.625 4.78125 9.625 2.1875 12.1875 C-5.41624978 20.19031183 -11.73615173 29.28592716 -14.3125 40.1875 C-14.58320313 41.25677734 -14.58320313 41.25677734 -14.859375 42.34765625 C-17.60254123 59.53974115 -14.78146851 75.73344756 -4.72265625 89.99609375 C4.27410181 101.90914291 16.60976888 111.19947748 31.58544922 113.90625 C49.98663674 116.36829042 65.56160681 113.25980395 80.6875 102.1875 C83.67142707 99.61514908 86.48157906 96.89593217 89.25 94.09375 C91.6875 92.1875 91.6875 92.1875 94.375 91.78125 C96.6875 92.1875 96.6875 92.1875 98.6875 94.1875 C101.58338903 111.71326996 92.88315113 132.79485188 83.08984375 146.87890625 C82.29369374 147.98511874 81.49297139 149.08805617 80.6875 150.1875 C79.92566406 151.22777344 79.16382813 152.26804688 78.37890625 153.33984375 C63.7286527 172.03154655 41.58785427 184.7713513 17.9921875 187.94140625 C-11.90824225 190.168034 -36.82830579 183.01409715 -59.7890625 163.5546875 C-76.99021999 147.41861716 -88.65828431 123.63331826 -89.515625 99.9453125 C-89.94609729 74.5063196 -83.3136678 49.87074123 -65.25927734 31.14355469 C-63.95019766 29.81840423 -62.63165509 28.50262098 -61.3125 27.1875 C-60.69632813 26.51203125 -60.08015625 25.8365625 -59.4453125 25.140625 C-45.34334743 9.89161014 -20.54228408 0.15973782 0 0 Z " fill="#FBFBFB" transform="translate(125.3125,35.8125)"/>
</svg>
